<svg xmlns="http://www.w3.org/2000/svg" xmlns:xlink="http://www.w3.org/1999/xlink" height="500" width="750" xmlns:v="https://vecta.io/nano"><style><![CDATA[.B{fill:#ad1519}.C{stroke-width:.26}.D{stroke-width:.39}.E{fill:#c8b100}.F{fill:#fff}.G{stroke-linejoin:round}.H{fill:none}.I{fill:#058e6e}.J{stroke-width:.52}.K{stroke:none}.L{stroke-width:.05}.M{fill:#005bbf}.N{stroke-linecap:round}]]></style><path fill="#c60b1e" d="M0 0h750v500H0z"/><path fill="#ffc400" d="M0 125h750v250H0z"/><g stroke="#000"><path d="M168 222.24s-.5 0-.8-.16-1.13-.96-1.13-.96l-.68-.5-.62-.85s-.73-1.18-.4-2.1c.34-.9.9-1.23 1.42-1.5.5-.26 1.58-.6 1.58-.6s.85-.37 1.13-.42l1.3-.32s.28-.16.56-.27c.3-.1.68-.1.9-.16.22-.06.8-.24 1.13-.26.52-.02 1.36.1 1.64.1l1.64.05c.4 0 1.8-.1 2.2-.1.4 0 .68-.05 1.13 0a7.08 7.08 0 0 1 1.47.43c.23.1 1.58.6 2.1.75s1.75.37 2.32.64c.56.27.9.72 1.2 1.1.28.37.34.78.45 1.05.1.26.1.84 0 1.1-.1.26-.5.8-.5.8l-.62 1.02-.8.64s-.57.54-1.02.48c-.45-.04-5.03-.86-7.97-.86s-7.64.86-7.64.86h.01z" class="B C G"/><g class="E"><g class="C"><ellipse cx="175.66" cy="215.68" rx="1.38" ry="2.5"/><ellipse cx="175.68" cy="215.68" rx=".64" ry="2.3"/></g><ellipse cx="175.68" cy="213.04" rx=".93" ry=".87" class="K"/><path stroke-width=".3" d="M176.96 212.74v.58h-2.53v-.58h.94v-1.32h-.62v-.57h.62v-.57h.6v.57h.62v.57h-.62v1.32h1"/><g class="C"><path d="M175.94 212.2a.93.87 0 1 1-.5 0" class="H"/><path d="M175.68 222.08h-4.8l-.1-1.18-.23-1.23-.23-1.53c-1.33-1.75-2.55-2.9-2.96-2.65.1-.32.22-.56.47-.7 1.18-.7 3.6.98 5.44 3.74l.46.75h3.97l.46-.75c1.82-2.76 4.26-4.44 5.43-3.74.26.15.37.4.47.7-.4-.24-1.62.9-2.96 2.65l-.23 1.53-.23 1.23-.1 1.18h-4.84z"/><path d="M167.55 215.44c.9-.53 3.02 1.14 4.73 3.74m11.55-3.74c-.9-.53-3 1.14-4.73 3.74" class="H"/></g></g><g id="A" class="C E"><path d="M168.58 224.25c-.2-.57-.58-1.08-.58-1.08 1.95-.57 4.66-.93 7.67-.94 3 .01 5.75.37 7.7.94l-.52.9c-.17.3-.4.8-.38.8-1.75-.54-4.02-.8-6.8-.82-2.8.01-5.46.35-6.86.86.02 0-.1-.32-.23-.68h.01"/><path d="M175.67 226.73c2.43-.01 5.1-.38 6.1-.63.66-.2 1.05-.5.98-.84-.04-.16-.18-.3-.37-.38-1.46-.47-4.07-.8-6.7-.8s-5.27.33-6.72.8c-.2.08-.33.22-.37.38-.07.35.32.64.98.84 1 .25 3.68.62 6.1.63zm7.8-4.65l-.6-.53s-.57.34-1.28.24c-.7-.1-.93-.97-.93-.97s-.8.67-1.44.62c-.65-.06-1.07-.62-1.07-.62s-.7.5-1.33.46c-.62-.06-1.2-.83-1.2-.83s-.63.8-1.25.86c-.62.05-1.13-.54-1.13-.54s-.28.6-1.07.72-1.47-.62-1.47-.62-.45.73-1 .92c-.54.18-1.24-.27-1.24-.27l-.2.43c-.08.16-.3.2-.3.2l.18.47c1.93-.56 4.56-.9 7.53-.9s5.67.35 7.6.92l.2-.54h-.01z"/><path d="M175.7 219.5l.28.05c-.05.12-.06.24-.06.38 0 .58.5 1.05 1.12 1.05.5 0 .9-.3 1.06-.73.01.01.1-.38.15-.38.03 0 .03.4.05.4.07.53.55.9 1.1.9.62 0 1.1-.47 1.1-1.06 0-.04 0-.08-.01-.12l.35-.35.2.44a1 1 0 0 0-.1.46c0 .56.47 1 1.06 1a1.07 1.07 0 0 0 .88-.45l.23-.3v.36c0 .34.14.66.5.7 0 0 .38.03.9-.38.52-.4.8-.75.8-.75l.03.42s-.5.84-.97 1.1c-.25.15-.64.3-.95.25-.32-.05-.55-.3-.67-.6a1.55 1.55 0 0 1-.8.22c-.63 0-1.2-.35-1.42-.86a1.56 1.56 0 0 1-1.16.5 1.64 1.64 0 0 1-1.26-.58 1.57 1.57 0 0 1-1.09.43c-.55 0-1.05-.28-1.33-.7a1.64 1.64 0 0 1-1.34.69 1.57 1.57 0 0 1-1.09-.43c-.3.35-.75.58-1.25.58-.48 0-.88-.2-1.17-.5-.22.5-.8.86-1.42.86-.3 0-.56-.08-.8-.22-.12.3-.35.56-.68.6-.3.06-.7-.1-.94-.25-.47-.26-1.02-1.1-1.02-1.1l.07-.42a6.2 6.2 0 0 0 .81.75c.52.4.9.38.9.38.34-.05.5-.37.5-.7v-.36l.22.3a1.07 1.07 0 0 0 .88.45c.6 0 1.06-.45 1.06-1 0-.17-.02-.32-.1-.46l.2-.44.35.35c-.01.04-.01.08-.01.12 0 .6.5 1.06 1.1 1.06.55 0 1.03-.36 1.1-.9.01 0 .01-.4.04-.4.05 0 .14.4.16.38.14.42.56.73 1.06.73.6 0 1.1-.47 1.1-1.05 0-.14 0-.26-.05-.38l.3-.05h.01z"/><path d="M175.67 222.23c-3 .01-5.72.37-7.67.94-.13.04-.3-.06-.33-.17-.04-.13.05-.28.18-.32 1.95-.6 4.73-.98 7.82-.98s5.88.38 7.83.98c.13.04.22.2.18.32-.04.1-.2.2-.33.17-1.95-.57-4.67-.93-7.68-.94z" class="G"/><path d="M165.43 221c-.01.01-.38-.48-.65-.73-.2-.18-.68-.33-.68-.33 0-.08.28-.28.58-.28.18 0 .35.07.45.2l.04-.2s.24.05.35.32c.12.3.05.72.05.72s-.05.2-.14.3z"/><path d="M167.32 220.22l-.1.66-1.4.15-.2-.12.04-.23 1.06-.87.62.4"/><path d="M165.45 220.75c.12-.12.36-.1.53.06.18.15.24.38.12.5-.12.13-.36.1-.53-.06-.18-.15-.24-.38-.12-.5zm2.57.13c-.06-.18 0-.37.13-.42.14-.03.3.1.37.27.06.2 0 .38-.14.42-.13.04-.3-.08-.36-.27zm.65-.84l.5.48 1.22-.66.1-.2-.17-.17-1.4-.12-.25.68"/><path d="M170.08 217.76l-.67.64.86 1.14.23.1.17-.18.3-1.37-.9-.32"/><path d="M172.36 219.3l-.26.63-1.4-.13-.18-.16.1-.22 1.22-.64.52.52"/><ellipse cx="170.51" cy="219.65" rx=".49" ry=".47"/><path d="M172.87 219.95c-.03-.2.07-.37.2-.4s.28.13.3.33c.03.2-.07.37-.2.38-.14.02-.28-.13-.3-.32zm.9-.7l.4.57 1.34-.42.14-.18-.15-.2-1.33-.4-.4.62"/><path d="M175.66 217.15l-.86.52.64 1.38.22.14.22-.14.64-1.38-.86-.52"/><path d="M177.55 219.24l-.4.57-1.34-.42-.14-.18.14-.2 1.34-.4.4.62"/><ellipse cx="175.67" cy="219.21" rx=".49" ry=".47"/><path d="M178.5 219.95c.02-.2-.08-.37-.22-.4s-.28.13-.3.33.07.37.2.38c.14.02.28-.13.3-.32zm.5-.65l.26.63 1.4-.13.18-.16-.1-.22-1.22-.64-.52.52"/><path d="M181.27 217.76l.67.64-.86 1.14-.23.1-.17-.18-.3-1.37.9-.32"/><path d="M182.68 220.04l-.5.48-1.22-.66-.1-.2.2-.17 1.4-.12.24.68"/><ellipse cx="180.85" cy="219.65" rx=".49" ry=".47"/><path d="M183.34 220.88c.06-.18 0-.37-.13-.42-.14-.03-.3.1-.37.27-.06.2 0 .38.14.42.13.04.3-.08.36-.27zm2.4.12c.01.01.38-.48.66-.73.2-.18.67-.33.67-.33 0-.08-.28-.28-.58-.28-.18 0-.35.07-.45.2l-.04-.2s-.24.05-.36.32c-.1.3-.03.72-.03.72s.04.2.13.3z"/><path d="M183.84 220.22l.1.66 1.4.15.2-.12-.05-.23-1.05-.87-.62.4"/><path d="M185.74 220.75c-.1-.12-.35-.1-.53.06s-.24.38-.12.5c.12.13.36.1.54-.06.18-.15.23-.38.1-.5z"/></g><g id="B" class="H"><g class="C"><path d="M168.05 224.3l.3-.5.65.13-.38.56-.58-.2" class="B"/><path d="M170.85 223.8l-.7.1c-.18.02-.35-.1-.38-.26a.32.32 0 0 1 .27-.35l.7-.1.7-.1c.18-.02.34.1.37.25.02.17-.1.33-.27.35l-.7.1" class="I"/><ellipse cx="173.19" cy="223.3" rx=".44" ry=".41" class="F"/><path d="M175.7 223.48h-.96c-.18 0-.33-.14-.33-.3s.14-.3.32-.3h1.96c.2 0 .33.14.33.3s-.15.3-.33.3h-1" class="B"/><ellipse cx="178.16" cy="223.3" rx=".44" ry=".41" class="F"/><path d="M180.5 223.8l.7.1c.18.02.35-.1.38-.26.02-.17-.1-.32-.27-.35l-.7-.1-.7-.1c-.18-.02-.35.1-.37.25a.3.3 0 0 0 .27.35l.7.1" class="I"/><g class="B"><path d="M183.24 224.33l-.25-.53-.67.06.32.6.6-.12"/><path d="M175.66 226.16c-2.43 0-4.63-.22-6.3-.65 1.67-.43 3.87-.7 6.3-.7 2.44 0 4.65.27 6.33.7-1.68.43-3.9.65-6.33.65z" class="G"/></g></g><path stroke-width=".01" d="M176.8 226.08v-1.16m-.58 1.2l.01-1.23m-.43 1.25v-1.26"/><path stroke-width=".02" d="m175.44 226.15v-1.27"/><path stroke-width=".03" d="M175.1 226.15v-1.27"/><path d="M174.77 226.15v-1.27m-.33 1.27v-1.27" stroke-width=".04"/><path d="m174.16 226.15v-1.27" class="L"/><path stroke-width=".06" d="M173.6 226.08v-1.15m.27 1.17v-1.2"/><path stroke-width=".07" d="M173.1 226.03v-1.06m.26 1.1l-.01-1.13"/><path stroke-width=".08" d="M172.42 225.97v-.93m.23.94V225m.23 1.02V225"/><path stroke-width=".09" d="M172.2 225.96v-.9"/><path stroke-width=".1" d="M171.97 225.92v-.85"/><path stroke-width=".11" d="M171.73 225.9v-.78"/><path d="M171.24 225.82l-.01-.62m.26.66v-.7m-.5.6v-.55" stroke-width=".12"/><path stroke-width=".13" d="M170.76 225.73v-.46"/><path stroke-width=".14" d="M170.5 225.67v-.36"/><path stroke-width=".15" d="M170.26 225.64v-.27"/><path stroke-width=".18" d="M170 225.58v-.13"/></g><g id="C" class="D"><g class="M"><path d="M191.28 330.68c-1.54 0-2.9-.33-3.93-.87-1-.5-2.36-.82-3.86-.82-1.5 0-2.9.32-3.9.83-1 .53-2.4.86-3.92.86-1.54 0-2.92-.36-3.93-.9-1-.5-2.33-.8-3.8-.8-1.52 0-2.86.3-3.86.8-1.02.54-2.42.88-3.95.88v2.4c1.53 0 2.93-.35 3.95-.88 1-.52 2.34-.82 3.86-.82 1.45 0 2.8.3 3.8.8 1 .53 2.4.9 3.93.9 1.52 0 2.9-.33 3.92-.86 1-.52 2.4-.84 3.9-.84 1.5 0 2.86.32 3.86.83 1.02.54 2.37.87 3.9.87l.02-2.4z"/><path fill="#ccc" d="M191.28 333.1c-1.54 0-2.9-.33-3.93-.87-1-.5-2.36-.83-3.86-.83-1.5 0-2.9.32-3.9.84-1 .53-2.4.86-3.92.86-1.54 0-2.92-.37-3.93-.9-1-.5-2.33-.8-3.8-.8-1.52 0-2.86.3-3.86.82-1.02.53-2.42.88-3.95.88v2.4c1.53 0 2.93-.35 3.95-.88 1-.52 2.34-.82 3.86-.82 1.45 0 2.8.3 3.8.8 1 .54 2.4.9 3.93.9 1.52 0 2.9-.34 3.92-.86s2.4-.84 3.9-.84c1.5 0 2.86.32 3.86.84 1.02.53 2.37.86 3.9.86l.02-2.4"/><path d="M191.28 335.5c-1.54 0-2.9-.33-3.93-.86-1-.52-2.36-.84-3.86-.84-1.5 0-2.9.32-3.9.84s-2.4.86-3.92.86c-1.54 0-2.92-.36-3.93-.9-1-.5-2.33-.8-3.8-.8-1.52 0-2.86.3-3.86.82-1.02.53-2.42.88-3.95.88v2.4c1.53 0 2.93-.34 3.95-.88 1-.5 2.34-.8 3.86-.8 1.45 0 2.8.3 3.8.8 1 .54 2.4.9 3.93.9 1.52 0 2.9-.32 3.92-.85 1-.52 2.4-.83 3.9-.83 1.5 0 2.86.3 3.86.82 1.02.55 2.37.86 3.9.86l.02-2.4"/><path fill="#ccc" d="M191.26 340.32c-1.54 0-2.9-.33-3.9-.87-1-.5-2.36-.82-3.86-.82-1.5 0-2.9.3-3.9.83s-2.4.86-3.92.86c-1.54 0-2.92-.37-3.93-.9-1-.5-2.33-.8-3.8-.8-1.52 0-2.86.3-3.86.8-1.02.53-2.42.88-3.95.88v-2.4c1.53 0 2.93-.36 3.95-.9 1-.5 2.34-.8 3.86-.8 1.45 0 2.8.3 3.8.8 1 .54 2.4.9 3.93.9 1.52 0 2.9-.32 3.92-.85 1-.52 2.4-.83 3.9-.83 1.5 0 2.86.3 3.86.82 1.02.55 2.4.86 3.93.86l-.02 2.42"/><path d="M191.26 342.73c-1.54 0-2.9-.33-3.9-.86-1-.52-2.36-.84-3.86-.84-1.5 0-2.9.32-3.9.84s-2.4.86-3.92.86c-1.54 0-2.92-.37-3.93-.9-1-.5-2.33-.8-3.8-.8-1.52 0-2.86.3-3.86.82-1.02.53-2.42.88-3.95.88v-2.4c1.53 0 2.93-.37 3.95-.9 1-.52 2.34-.8 3.86-.8 1.45 0 2.8.3 3.8.8 1 .53 2.4.9 3.93.9 1.52 0 2.9-.34 3.92-.86s2.4-.83 3.9-.83c1.5 0 2.86.3 3.86.82 1.02.54 2.38.87 3.93.87l-.02 2.4z"/></g><g class="E"><path d="M166.92 320.78c.05.2.13.4.13.62 0 1.46-1.27 2.63-2.8 2.63h22.94c-1.55 0-2.8-1.17-2.8-2.63 0-.2.04-.4.1-.62-.13.05-.3.06-.44.06h-16.7c-.13 0-.3-.02-.4-.06z" class="G"/><path d="M167.33 319.27h16.7c.57 0 1.02.35 1.02.78s-.45.8-1.02.8h-16.7c-.56 0-1.02-.36-1.02-.8s.46-.78 1.02-.78zm-3.06 10.6h22.87v-5.83h-22.87v5.83z"/></g><path fill="#ccc" d="M167.55 318.32h16.25V238.7h-16.25v79.63z"/><path d="m179.13 238.8v79.46m1.83-79.46v79.46" class="H"/><g class="E"><path d="M164.58 232.37h22.3v-5.84h-22.3v5.84z"/><path d="M166.92 236.26c.14-.06.24-.07.4-.07h16.7c.17 0 .32.03.46.08-.58-.2-1-.7-1-1.32s.45-1.14 1.03-1.33c-.14.04-.33.08-.5.08h-16.7a1.41 1.41 0 0 1-.47-.06l.1.02c.6.18.94.7.94 1.3 0 .56-.38 1.13-.97 1.3z" class="G"/><path d="M167.33 236.2h16.7c.57 0 1.02.35 1.02.78 0 .44-.45.8-1.02.8h-16.7c-.56 0-1.02-.35-1.02-.8 0-.43.46-.78 1.02-.78zm0-3.83h16.7c.57 0 1.03.3 1.03.66 0 .37-.46.67-1.03.67h-16.7c-.56 0-1.02-.3-1.02-.67 0-.36.46-.66 1.02-.66z"/></g></g><g id="D" class="B D"><path d="M162.48 298.62c-2.26 1.3-3.8 2.64-3.55 3.3.12.6.84 1.07 1.87 1.75 1.62 1.13 2.6 3.14 1.83 4.07 1.34-1.08 2.2-2.7 2.2-4.5 0-1.87-.9-3.56-2.34-4.64z"/><path d="M200.4 268.47c-3.54-1.46-9.57-2.55-16.5-2.78-2.4.02-5.04.25-7.8.7-9.72 1.63-17.13 5.5-16.54 8.67.01.06.04.2.05.26l-3.7-8.52c-.65-3.5 7.56-7.82 18.35-9.62 3.4-.57 6.7-.8 9.56-.76 6.9 0 12.9.9 16.52 2.23l.04 9.82" class="G"/><path d="M167.52 278.47c-4.5-.32-7.58-1.53-7.94-3.4-.28-1.5 1.25-3.17 3.97-4.68l4 .3-.03 7.8m16.3-6.1c2.82.43 4.93 1.13 5.98 2l.1.17c.5 1.03-1.97 3.22-6.1 5.67l.03-7.83"/><path d="M157.42 293.83c-.43-1.28 3.97-3.86 10.18-6.14 2.84-1 5.18-2.07 8.1-3.35 8.63-3.82 15-8.2 14.22-9.8l-.1-.17c.46.38 1.18 8.24 1.18 8.24.78 1.46-5.05 5.78-13 9.58-2.54 1.22-7.9 3.2-10.44 4.1-4.54 1.57-9.04 4.54-8.63 5.64l-1.5-8.1z" class="G"/></g><path stroke-width=".27" d="M324.85 220.42s-.74.78-1.28.9c-.53.1-1.2-.5-1.2-.5s-.48.5-1.08.64c-.6.14-1.4-.66-1.4-.66s-.57.8-1.07 1c-.5.18-1.13-.24-1.13-.24s-.23.4-.65.6c-.18.1-.48-.05-.48-.05l-.6-.38-.68-.72-.62-.24-.3-1.07-.08-.57c-.13-.65.87-1.4 2.3-1.72.82-.2 1.54-.18 2.06-.02.57-.48 1.78-.82 3.2-.82 1.3 0 2.42.27 3.04.7.6-.43 1.74-.7 3.03-.7 1.42 0 2.62.34 3.2.82.53-.16 1.24-.17 2.07.02 1.42.32 2.43 1.07 2.3 1.72l-.08.57c-.03.16-.32 1.07-.32 1.07l-.62.24-.68.72-.58.38s-.3.14-.48.05c-.43-.2-.66-.6-.66-.6s-.62.42-1.13.24c-.5-.2-1.07-1-1.07-1s-.82.8-1.42.66c-.6-.13-1.07-.64-1.07-.64s-.68.6-1.2.5c-.54-.1-1.27-.9-1.27-.9z" class="B"/><g class="E"><g class="C"><ellipse cx="324.82" cy="216.2" rx="1.38" ry="1.96"/><ellipse cx="324.85" cy="216.2" rx=".63" ry="1.81"/></g><ellipse cx="324.84" cy="213.95" rx=".93" ry=".88" class="K"/><path stroke-width=".3" d="M326.13 213.64v.58h-2.53v-.58h.94v-1.3h-.62v-.58h.62v-.58h.6v.58h.6v.58h-.6v1.3h.98"/><path d="M325.1 213.12a.93.88 0 1 1-.51-.01" class="C H"/></g><g class="H"><g class="C"><path d="M314.4 220c-.13-.33-.22-.7-.22-1.08 0-1.6 1.26-2.88 2.83-2.88a2.68 2.68 0 0 1 1.37.37" class="N"/><path d="M319.48 217.93c-.15-.26-.3-.54-.3-.84 0-1.15 1.2-2.08 2.64-2.08.62 0 1.2.17 1.65.45m6.7 2.5a1.79 1.79 0 0 0 .25-.87c0-1.15-1.18-2.08-2.64-2.08-.62 0-1.2.17-1.64.45"/><path d="M335.2 220c.13-.33.2-.7.2-1.08 0-1.6-1.26-2.88-2.82-2.88-.5 0-.97.13-1.38.37" class="N"/></g><g stroke-width=".21"><ellipse cx="313.57" cy="218.68" rx=".45" ry=".43"/><ellipse cx="313.74" cy="217.1" rx=".45" ry=".43"/><ellipse cx="314.76" cy="215.9" rx=".45" ry=".43"/><ellipse cx="316.11" cy="215.25" rx=".45" ry=".43"/><ellipse cx="317.55" cy="215.31" rx=".45" ry=".43"/><ellipse cx="318.43" cy="217.08" rx=".45" ry=".43" class="F"/><ellipse cx="318.68" cy="215.58" rx=".45" ry=".43"/><ellipse cx="319.81" cy="214.64" rx=".45" ry=".43"/><ellipse cx="321.23" cy="214.19" rx=".45" ry=".43"/><ellipse cx="322.67" cy="214.24" rx=".45" ry=".43"/><ellipse cx="326.94" cy="214.24" rx=".45" ry=".43"/><ellipse cx="328.39" cy="214.19" rx=".45" ry=".43"/><ellipse cx="329.8" cy="214.64" rx=".45" ry=".43"/><ellipse cx="330.93" cy="215.58" rx=".45" ry=".43"/><ellipse cx="331.18" cy="217.08" rx=".45" ry=".43" class="F"/><ellipse cx="332.06" cy="215.31" rx=".45" ry=".43"/><ellipse cx="333.51" cy="215.25" rx=".45" ry=".43"/><ellipse cx="334.86" cy="215.9" rx=".45" ry=".43"/><ellipse cx="335.88" cy="217.1" rx=".45" ry=".43"/><ellipse cx="336.05" cy="218.68" rx=".45" ry=".43"/></g></g><g class="C"><use xlink:href="#A" x="149.17"/><use xlink:href="#B" x="149.17"/></g><g class="D"><use xlink:href="#C" x="149.17"/><use xlink:href="#D" transform="matrix(-1 0 0 1 500.57 0)"/></g><path d="M166.42 264.65c2-.72 3.3-1.58 2.66-3.14-.4-1-1.43-1.2-2.97-.63l-2.7 1 2.44 6.03.8-.34.85-.26-1.08-2.64v-.01zm-1.18-2.9l.7-.25c.57-.2 1.2.1 1.5.8.2.53.16 1.13-.5 1.55-.2.13-.46.23-.7.33l-1-2.43m7.54-2.53l-.86.22-.88.12 1.4 6.28 4.38-.88c-.05-.12-.12-.26-.14-.38-.03-.14-.03-.28-.04-.4l-2.6.66-1.26-5.6m8.78 5.4c.82-2.28 1.82-4.46 2.8-6.67l-.54.07c-.18.01-.37.01-.54 0-.53 1.6-1.18 3.2-1.87 4.8l-2.43-4.5-1.03.12-1.04.02 3.64 6.23.5-.08c.16-.01.33.01.5.02m9.17-4.84l.48-.9c-.24-.22-.96-.55-1.8-.63-1.8-.18-2.8.6-2.93 1.7-.26 2.26 3.3 2.07 3.14 3.57-.07.64-.75.9-1.48.83-.8-.08-1.4-.53-1.5-1.2l-.22-.02c-.12.4-.3.77-.48 1.15.53.34 1.2.53 1.85.6 1.83.2 3.22-.54 3.35-1.74.23-2.15-3.37-2.27-3.23-3.54.06-.53.47-.88 1.4-.8.67.07 1.08.43 1.26.95l.18.02m119.56 5.2l2.2-6.87c-.17.05-.35.1-.53.1-.17.03-.36.04-.54.05-.37 1.64-.88 3.3-1.42 4.94l-2.83-4.3-1.02.2-1.04.1 4.2 5.9c.16-.04.32-.1.5-.12.16-.02.33-.02.5-.03m6.16-6.8l-.88.03c-.3 0-.6-.04-.9-.06l-.12 6.4 4.5.08a1.94 1.94 0 0 1-.06-.4c0-.12.04-.27.07-.4l-2.7.08.1-5.73m7.03 1.04c.72.06 1.4.2 2.1.3-.01-.13-.03-.27-.02-.4s.06-.26.1-.4l-6.07-.5c.01.14.03.27.02.4-.01.14-.06.27-.1.4a19.07 19.07 0 0 1 2.21.05l-.53 5.77.88.03.88.1.53-5.77m2.48 6.35l.88.15c.28.06.57.15.85.23l.72-2.94.08.01.5 1.2.9 2.22 1.05.18 1.04.28-.3-.67-1.4-3.02c1.12.04 1.98-.36 2.2-1.26.15-.62-.1-1.1-.68-1.53-.44-.3-1.28-.47-1.83-.6l-2.44-.53-1.54 6.3m3.14-5.42c.7.16 1.6.27 1.6 1.07a2.59 2.59 0 0 1-.06.48c-.23.94-.94 1.26-2.13.9l.6-2.46m8.4 7.34c-.05.7-.18 1.37-.3 2.1l.9.44c.3.16.57.34.86.52l.6-7.23-.4-.2a2.92 2.92 0 0 1-.37-.24l-6.38 4.05.5.25c.17.1.3.2.47.28.54-.45 1.1-.82 1.74-1.3l2.4 1.3v.01zm-1.8-1.66l2.13-1.37-.25 2.4-1.88-1.03" class="E K"/><path d="M249.65 182.72c6.64 0 12.56 1 16.4 2.5 2.2 1 5.16 1.73 8.4 2.17 2.47.33 4.8.4 6.85.24 2.73-.06 6.67.74 10.62 2.48 3.26 1.45 6 3.2 7.8 4.9l-1.57 1.4-.45 3.96-4.3 4.92-2.15 1.83-5.1 4.07-2.6.2-.8 2.25-32.9-3.86-33.02 3.86-.8-2.25-2.6-.2-5.08-4.07-2.15-1.83-4.3-4.92-.44-3.96-1.58-1.4c1.82-1.7 4.54-3.46 7.8-4.9 3.95-1.74 7.9-2.54 10.62-2.48 2.04.15 4.38.1 6.85-.24 3.24-.44 6.2-1.17 8.4-2.17 3.86-1.52 9.44-2.5 16.08-2.5z" class="B C"/><g class="E"><g class="D"><path d="M225.34 191.42l1.38 1.1 2.08-3.4c-2.25-1.38-3.8-3.78-3.8-6.5a6.84 6.84 0 0 1 .06-.91c.2-4.34 5.5-7.92 12.2-7.92 3.48 0 6.63.95 8.84 2.48a31.95 31.95 0 0 1 .21-1.86c-2.43-1.42-5.6-2.28-9.05-2.28-7.7 0-13.74 4.4-14.03 9.57a9.45 9.45 0 0 0-.05.92c0 2.76 1.26 5.26 3.26 7l-1.1 1.8"/><path d="M225.43 191.46c-2.63-1.97-4.27-4.64-4.27-7.58 0-3.38 2.22-6.4 5.58-8.4-2.07 1.67-3.33 3.83-3.5 6.23a9.45 9.45 0 0 0-.05.92c0 2.76 1.26 5.26 3.26 7l-1 1.85"/><path d="M202.2 194.9c-1.48-1.65-2.38-3.8-2.38-6.12 0-1.4.33-2.75.9-3.95 2.13-4.38 8.82-7.57 16.76-7.57 2.16 0 4.23.23 6.14.67-.42.46-.75.97-1.08 1.48-1.6-.3-3.3-.48-5.06-.48-7.27 0-13.36 2.83-15.12 6.65a7.33 7.33 0 0 0-.73 3.2c0 2.32 1.1 4.4 2.8 5.82l-2.63 4.3-1.4-1.12 1.8-2.88z"/><path d="M204.9 180.48c-1.9 1.2-3.36 2.7-4.16 4.34a9.05 9.05 0 0 0-.9 3.95c0 2.33.9 4.47 2.38 6.12l-1.6 2.6c-1.53-1.96-2.42-4.26-2.42-6.7 0-4.2 2.67-7.87 6.7-10.3zm45.14-9.2c1.76 0 3.28 1.16 3.64 2.73.23 1.38.38 2.95.4 4.62.01.18-.01.35-.01.52 0 .2.04.4.05.6.06 3.52.56 6.62 1.27 8.52l-5.36 5.14-5.43-5.14c.72-1.9 1.22-5 1.3-8.52 0-.2.04-.4.04-.6l-.01-.52c.03-1.67.18-3.24.4-4.62.36-1.57 1.94-2.73 3.7-2.73z"/><path d="M250.04 172.94c.9 0 1.68.58 1.87 1.4.23 1.3.37 2.8.4 4.38v.48c0 .2.03.4.04.6.05 3.32.53 6.25 1.2 8.05L250 191.2l-3.54-3.35c.67-1.8 1.15-4.73 1.2-8.05 0-.2.04-.4.04-.6v-.48c.03-1.58.17-3.07.4-4.38.18-.8 1.02-1.4 1.93-1.4zm24.66 18.48l-1.4 1.1-2.08-3.4c2.26-1.38 3.8-3.78 3.8-6.5a6.84 6.84 0 0 0-.06-.91c-.2-4.34-5.5-7.92-12.2-7.92-3.5 0-6.63.95-8.84 2.48-.06-.67-.12-1.25-.22-1.86 2.44-1.42 5.6-2.28 9.06-2.28 7.7 0 13.74 4.4 14.03 9.57a9.45 9.45 0 0 1 .05.92c0 2.76-1.27 5.26-3.27 7l1.1 1.8"/><path d="M274.6 191.46c2.63-1.97 4.27-4.64 4.27-7.58 0-3.38-2.22-6.4-5.58-8.4 2.07 1.67 3.33 3.83 3.5 6.23a9.45 9.45 0 0 1 .05.92c0 2.76-1.27 5.26-3.27 7l1.02 1.85"/><path d="M297.83 194.9c1.47-1.65 2.38-3.8 2.38-6.12 0-1.4-.33-2.75-.9-3.95-2.14-4.38-8.82-7.57-16.76-7.57-2.16 0-4.23.23-6.15.67.43.46.76.97 1.1 1.48 1.58-.3 3.3-.48 5.06-.48 7.27 0 13.35 2.83 15.1 6.65a7.33 7.33 0 0 1 .73 3.2c0 2.32-1.1 4.4-2.8 5.82l2.63 4.3 1.42-1.12-1.8-2.88z"/><path d="M295.14 180.48c1.9 1.2 3.36 2.7 4.16 4.34.58 1.2.9 2.54.9 3.95 0 2.33-.9 4.47-2.38 6.12l1.6 2.6c1.53-1.96 2.4-4.26 2.4-6.7 0-4.2-2.67-7.87-6.7-10.3z"/></g><g class="C"><ellipse cx="250.05" cy="167.3" rx="4.43" ry="4.2" class="M"/><path d="M248.9 155.54v2.26h-2.42v2.3h2.42v6.6h-3.05c-.03.2-.22.37-.22.6 0 .58.12 1.14.35 1.64 0 .02.02.02.03.03h8.12c0-.01.02-.01.03-.03.22-.5.35-1.06.35-1.64 0-.22-.2-.38-.22-.6h-2.96v-6.6h2.42v-2.3h-2.42v-2.26h-2.43z"/></g></g><g class="D F"><ellipse cx="250.04" cy="188.94" rx="1.91" ry="1.8"/><ellipse cx="250.04" cy="185.4" rx="1.91" ry="1.8"/><ellipse cx="250.04" cy="181.6" rx="1.52" ry="1.44"/><ellipse cx="250.04" cy="178.18" rx="1.1" ry="1.04"/><ellipse cx="250.04" cy="175.18" rx=".88" ry=".83"/><ellipse cx="198.94" cy="198.67" rx="1.1" ry="1.04"/><ellipse cx="197.44" cy="196.02" rx="1.1" ry="1.04"/><ellipse cx="196.44" cy="192.94" rx="1.1" ry="1.04"/><ellipse cx="196.31" cy="189.64" rx="1.1" ry="1.04"/><ellipse cx="197.12" cy="186.4" rx="1.1" ry="1.04"/><ellipse cx="198.81" cy="183.45" rx="1.1" ry="1.04"/><ellipse cx="201.06" cy="181.02" rx="1.1" ry="1.04"/><ellipse cx="203.68" cy="179.01" rx="1.1" ry="1.04"/><ellipse cx="206.8" cy="177.36" rx="1.1" ry="1.04"/><ellipse cx="210.04" cy="176.19" rx="1.1" ry="1.04"/><ellipse cx="213.66" cy="175.54" rx="1.1" ry="1.04"/><ellipse cx="217.1" cy="175.36" rx="1.1" ry="1.04"/><ellipse cx="220.47" cy="175.48" rx="1.1" ry="1.04"/><ellipse cx="224.21" cy="190.32" rx="1.1" ry="1.04"/><ellipse cx="222.34" cy="187.65" rx="1.1" ry="1.04"/><ellipse cx="221.35" cy="184.75" rx="1.1" ry="1.04"/><ellipse cx="221.47" cy="181.57" rx="1.1" ry="1.04"/><ellipse cx="222.16" cy="178.37" rx="1.1" ry="1.04"/><ellipse cx="223.84" cy="175.48" rx="1.1" ry="1.04"/><ellipse cx="226.4" cy="173.47" rx="1.1" ry="1.04"/><ellipse cx="229.39" cy="171.81" rx="1.1" ry="1.04"/><ellipse cx="232.7" cy="170.82" rx="1.1" ry="1.04"/><ellipse cx="236.13" cy="170.23" rx="1.1" ry="1.04"/><ellipse cx="239.5" cy="170.28" rx="1.1" ry="1.04"/><ellipse cx="242.99" cy="170.87" rx="1.1" ry="1.04"/><ellipse cx="246.23" cy="171.99" rx="1.1" ry="1.04"/><ellipse cx="253.8" cy="171.99" rx="1.1" ry="1.04"/><ellipse cx="257.04" cy="170.87" rx="1.1" ry="1.04"/><ellipse cx="260.54" cy="170.28" rx="1.1" ry="1.04"/><ellipse cx="263.9" cy="170.23" rx="1.1" ry="1.04"/><ellipse cx="267.34" cy="170.82" rx="1.1" ry="1.04"/><ellipse cx="270.64" cy="171.81" rx="1.1" ry="1.04"/><ellipse cx="273.64" cy="173.47" rx="1.1" ry="1.04"/><ellipse cx="276.19" cy="175.48" rx="1.1" ry="1.04"/><ellipse cx="277.88" cy="178.37" rx="1.1" ry="1.04"/><ellipse cx="278.57" cy="181.57" rx="1.1" ry="1.04"/><ellipse cx="278.69" cy="184.75" rx="1.1" ry="1.04"/><ellipse cx="277.69" cy="187.65" rx="1.1" ry="1.04"/><ellipse cx="275.83" cy="190.32" rx="1.1" ry="1.04"/><ellipse cx="279.57" cy="175.48" rx="1.1" ry="1.04"/><ellipse cx="282.94" cy="175.36" rx="1.1" ry="1.04"/><ellipse cx="286.38" cy="175.54" rx="1.1" ry="1.04"/><ellipse cx="290" cy="176.19" rx="1.1" ry="1.04"/><ellipse cx="293.24" cy="177.36" rx="1.1" ry="1.04"/><ellipse cx="296.36" cy="179.01" rx="1.1" ry="1.04"/><ellipse cx="298.97" cy="181.02" rx="1.1" ry="1.04"/><ellipse cx="301.22" cy="183.45" rx="1.1" ry="1.04"/><ellipse cx="302.91" cy="186.4" rx="1.1" ry="1.04"/><ellipse cx="303.72" cy="189.64" rx="1.1" ry="1.04"/><ellipse cx="303.6" cy="192.94" rx="1.1" ry="1.04"/><ellipse cx="302.6" cy="196.02" rx="1.1" ry="1.04"/><ellipse cx="301.1" cy="198.67" rx="1.1" ry="1.04"/></g><g class="D E"><path d="M250.15 226.18c-12.26-.02-23.25-1.47-31.1-3.83-.57-.18-.87-.7-.84-1.25a1.17 1.17 0 0 1 .84-1.17c7.84-2.36 18.83-3.8 31.1-3.83 12.27.02 23.25 1.47 31.1 3.83.55.17.84.65.83 1.17.03.55-.27 1.07-.83 1.25-7.84 2.36-18.82 3.8-31.1 3.83"/><path d="M250.07 216.1c-12.4.03-23.55 1.58-31.4 4 .65-.3.6-1.12-.22-3.2-.98-2.53-2.5-2.42-2.5-2.42 8.66-2.56 20.73-4.16 34.16-4.18 13.44.02 25.6 1.62 34.27 4.18 0 0-1.53-.1-2.5 2.42-.8 2.08-.87 2.9-.2 3.2-7.84-2.42-19.2-3.97-31.6-4"/><path d="M250.12 210.3c-13.43.02-25.5 1.62-34.16 4.18-.58.17-1.2-.05-1.38-.6a1.06 1.06 0 0 1 .7-1.35c8.7-2.67 21.08-4.35 34.84-4.38 13.77.03 26.2 1.7 34.9 4.38a1.06 1.06 0 0 1 .7 1.35c-.2.55-.8.77-1.38.6-8.67-2.56-20.78-4.16-34.22-4.18"/><path d="M250.2 199.78l1.23.22c-.2.5-.24 1.05-.24 1.63 0 2.57 2.2 4.65 4.92 4.65 2.18 0 4.04-1.35 4.67-3.2.08.05.47-1.68.68-1.66.17.02.15 1.8.22 1.77.3 2.34 2.46 3.93 4.87 3.93 2.7 0 4.9-2.08 4.9-4.65 0-.2-.01-.38-.04-.57l1.54-1.52.83 1.94c-.33.6-.46 1.3-.46 2.03 0 2.46 2.1 4.44 4.7 4.44 1.63 0 3.06-.78 3.9-1.97l1-1.25v1.53c0 1.55.66 2.93 2.16 3.18 0 0 1.73.1 4.03-1.7 2.3-1.8 3.55-3.3 3.55-3.3l.2 1.8s-1.9 2.95-3.97 4.15c-1.14.66-2.86 1.35-4.23 1.13-1.44-.24-2.48-1.4-3-2.74-1.03.6-2.25.97-3.55.97-2.8 0-5.33-1.54-6.32-3.86-1.3 1.4-3.1 2.25-5.2 2.25-2.24 0-4.3-1-5.57-2.56-1.27 1.16-2.98 1.87-4.88 1.87-2.48 0-4.7-1.22-5.94-3.05-1.25 1.83-3.46 3.05-5.94 3.05-1.9 0-3.6-.7-4.87-1.87-1.28 1.55-3.34 2.56-5.58 2.56-2.1 0-3.9-.85-5.2-2.25-1 2.32-3.52 3.86-6.32 3.86a6.94 6.94 0 0 1-3.55-.97c-.54 1.34-1.57 2.5-3.02 2.74-1.36.22-3.08-.47-4.22-1.13-2.08-1.2-3.98-4.15-3.98-4.15l.2-1.8s1.27 1.5 3.56 3.3c2.3 1.8 4.02 1.7 4.02 1.7 1.5-.25 2.16-1.63 2.16-3.18l-.01-1.53 1 1.25c.84 1.2 2.28 1.97 3.9 1.97 2.6 0 4.7-1.98 4.7-4.44 0-.73-.13-1.42-.46-2.03l.83-1.94 1.54 1.52-.04.57c0 2.57 2.2 4.65 4.9 4.65 2.42 0 4.56-1.6 4.88-3.93.06.03.05-1.75.22-1.77.2-.02.6 1.7.67 1.66.64 1.86 2.5 3.2 4.68 3.2 2.7 0 4.9-2.08 4.9-4.65 0-.58-.03-1.13-.24-1.63l1.3-.22"/><path d="M208.37 206.32a2.24 2.24 0 0 0-.72-1.06c-.8-.68-1.84-.8-2.36-.25-.07.07-.13.17-.17.25 0 0-1.1-2.08-2.4-2.78-1.3-.7-3.5-.52-3.5-.52 0-1.6 1.3-2.9 3-2.9 1 0 1.92.4 2.48 1.1l.23-1.07s1.36.27 1.98 1.82-.06 3.8-.06 3.8.34-.96.85-1.6c.5-.64 1.8-1.34 2.5-1.66.67-.3 1.37-.8 1.37-.8a5.94 5.94 0 0 0 .05.61c.03.5-.01.83-.01.83 1.24-.17 2.7.04 3.83.48-.5.95-1.4 1.84-2.62 2.3l.83.75c.34.34.44.5.44.5l-1.27.2c-.43.05-1.84.28-2.7.22-.62-.04-1.32-.14-1.74-.22"/><path d="M205.3 205c.52-.54 1.57-.43 2.36.25.8.67 1.02 1.66.5 2.2-.5.54-1.57.42-2.36-.25-.8-.68-1.02-1.66-.5-2.2" class="B"/><path d="M216.4 205.9c-.28-.83-.03-1.65.57-1.83.6-.2 1.32.33 1.6 1.16s.03 1.65-.57 1.84c-.6.18-1.3-.34-1.6-1.17" class="F"/><path d="M226.12 201.86c-.33-.27-.6-.64-.67-1.08s.01-.87.23-1.23c0 0-.88-.44-1.83-.7-.72-.2-2-.2-2.37-.2l-1.15-.03a6.22 6.22 0 0 0 .28.55c.27.46.5.75.5.75-1.27.3-2.35 1.12-3.03 2.1 1 .68 2.3 1.1 3.6.97 0 0-.12.34-.2.86l-.06.6 1.07-.4c.35-.13 1.54-.55 2.15-.96.8-.54 1.48-1.25 1.48-1.25"/><path d="M225.68 191.65c1.06.67 1.98 1.8 2.3 3.03 0 0 .13-.25.7-.6.6-.33 1.1-.32 1.1-.32l-.25 1.32c-.1.34-.1 1.38-.32 2.32-.23.93-.63 1.68-.63 1.68a1.98 1.98 0 0 0-1.58-.41c-.58.1-1.06.44-1.32.9 0 0-.66-.58-1.2-1.38-.55-.8-.93-1.78-1.13-2.08-.2-.3-.72-1.15-.72-1.15s.47-.18 1.14-.05c.67.12.88.32.88.32-.14-1.28.28-2.62 1.04-3.6"/><path d="M228.97 201.38c.22-.35.32-.8.24-1.23s-.32-.8-.66-1.07c0 0 .67-.7 1.47-1.26.6-.4 1.8-.82 2.15-.95l1.07-.4s0 .18-.06.6c-.08.52-.2.87-.2.87 1.3-.14 2.62.3 3.6.98-.7.97-1.77 1.8-3.04 2.08a6.3 6.3 0 0 0 .5.74l.28.56-1.15-.03c-.38 0-1.65-.01-2.37-.2-.95-.25-1.84-.7-1.84-.7"/><ellipse cx="227.37" cy="200.45" rx="2.17" ry="2.06" class="B"/><path d="M237.76 201.77c-.1-.87.3-1.63.93-1.7.63-.07 1.23.57 1.34 1.44.1.86-.3 1.63-.93 1.7-.62.07-1.22-.57-1.34-1.44" class="F"/><path d="M248.5 199.83c-.32-.36-.53-.82-.53-1.33a1.96 1.96 0 0 1 .51-1.32s-.9-.67-1.9-1.12c-.77-.35-2.18-.6-2.6-.67l-1.28-.24s.04.2.2.67c.2.56.4.93.4.93-1.47.08-2.85.8-3.8 1.76.96.94 2.34 1.66 3.8 1.75 0 0-.2.36-.4.93l-.2.67 1.28-.24c.42-.08 1.83-.32 2.6-.67 1-.46 1.9-1.1 1.9-1.1"/><path d="M250.1 188.36c1.05.95 1.85 2.36 1.95 3.82 0 0 .2-.27.9-.53.73-.26 1.28-.16 1.28-.16l-.55 1.42c-.17.37-.4 1.53-.84 2.53-.44 1-1.05 1.76-1.05 1.76a2.24 2.24 0 0 0-1.67-.75c-.68 0-1.27.3-1.67.75 0 0-.6-.76-1.05-1.76-.45-1-.67-2.16-.84-2.53s-.56-1.42-.56-1.42.56-.1 1.28.16.92.53.92.53c.1-1.46.86-2.87 1.9-3.82"/><path d="M251.76 199.83c.33-.36.53-.82.53-1.33a1.96 1.96 0 0 0-.51-1.32s.9-.67 1.9-1.12c.76-.35 2.17-.6 2.6-.67l1.26-.24s-.02.2-.2.67c-.2.56-.4.93-.4.93 1.47.08 2.86.8 3.8 1.76-.95.94-2.33 1.66-3.8 1.75 0 0 .2.36.4.93.16.46.2.67.2.67l-1.26-.24c-.43-.08-1.84-.32-2.6-.67-1-.46-1.92-1.1-1.92-1.1"/><ellipse cx="250.14" cy="198.5" rx="2.17" ry="2.06" class="B"/><path d="M262.58 201.77c.1-.87-.3-1.63-.93-1.7s-1.23.57-1.34 1.44c-.1.86.3 1.63.93 1.7.63.07 1.23-.57 1.34-1.44" class="F"/><path d="M271.38 201.38c-.22-.35-.32-.8-.25-1.23.1-.44.33-.8.67-1.07 0 0-.67-.7-1.47-1.26-.6-.4-1.8-.82-2.16-.95l-1.06-.4s-.01.18.06.6c.08.52.2.87.2.87-1.3-.14-2.6.3-3.6.98.68.97 1.77 1.8 3.03 2.08 0 0-.23.28-.5.74-.22.4-.28.56-.28.56l1.14-.03c.38 0 1.66-.01 2.37-.2.95-.25 1.84-.7 1.84-.7"/><path d="M274.67 191.65c-1.06.67-1.98 1.8-2.3 3.03 0 0-.12-.25-.7-.6-.58-.33-1.1-.32-1.1-.32l.26 1.32c.1.34.1 1.38.3 2.32.23.93.64 1.68.64 1.68a1.97 1.97 0 0 1 1.57-.41c.6.1 1.06.44 1.33.9 0 0 .66-.58 1.2-1.38.54-.8.92-1.78 1.12-2.08.2-.3.72-1.15.72-1.15s-.47-.18-1.14-.05c-.67.12-.88.32-.88.32.15-1.28-.28-2.62-1.03-3.6"/><path d="M274.22 201.86c.34-.27.6-.64.67-1.08a1.69 1.69 0 0 0-.22-1.23s.88-.44 1.83-.7c.72-.2 2-.2 2.36-.2l1.15-.03s-.06.17-.28.55c-.26.46-.5.75-.5.75 1.26.3 2.34 1.12 3.03 2.1-1 .68-2.3 1.1-3.6.97 0 0 .1.34.2.86l.06.6-1.06-.4c-.36-.13-1.55-.55-2.16-.96-.8-.54-1.48-1.25-1.48-1.25"/><ellipse cx="272.98" cy="200.45" rx="2.17" ry="2.06" class="B"/><path d="M283.96 205.9c.28-.83.03-1.65-.57-1.83-.6-.2-1.32.33-1.6 1.16-.28.83-.03 1.65.57 1.84.6.18 1.32-.34 1.6-1.17" class="F"/><path d="M291.97 206.32c.1-.37.36-.75.72-1.06.8-.68 1.85-.8 2.36-.25.07.07.14.17.18.25 0 0 1.1-2.08 2.4-2.78s3.5-.52 3.5-.52c0-1.6-1.3-2.9-3-2.9-1 0-1.92.4-2.47 1.1l-.23-1.07s-1.36.27-1.98 1.82.05 3.8.05 3.8-.33-.96-.84-1.6c-.5-.64-1.8-1.34-2.5-1.66-.68-.3-1.37-.8-1.37-.8s-.03.18-.06.6a5.62 5.62 0 0 0 .02.83c-1.25-.17-2.7.04-3.83.48.48.95 1.4 1.84 2.6 2.3l-.83.75c-.33.34-.43.5-.43.5l1.27.2c.43.05 1.84.28 2.68.22.63-.04 1.32-.14 1.74-.22"/><path d="M295.05 205c-.5-.54-1.57-.43-2.36.25-.8.67-1.02 1.66-.5 2.2.5.54 1.57.42 2.36-.25.8-.68 1.02-1.66.5-2.2" class="B"/></g><g class="H"><path d="M250.12 224.57c-11.06-.01-21.07-1.3-28.68-3.26 7.6-1.97 17.62-3.17 28.68-3.2 11.07.02 21.13 1.22 28.74 3.2-7.6 1.97-17.67 3.25-28.74 3.26z" class="B D G"/><path d="M258.04 224.28v-6m-3.02 6.2l.04-6.37m-2.24 6.45v-6.5" class="L"/><path stroke-width=".09" d="m250.95 224.64v-6.57"/><path stroke-width=".14" d="m249.16 224.64v-6.57"/><path stroke-width=".18" d="m247.48 224.64v-6.57"/><path stroke-width=".23" d="M245.8 224.64v-6.57"/><path stroke-width=".28" d="m244.32 224.64v-6.57"/><path stroke-width=".33" d="M241.48 224.28l-.04-5.97m1.4 6.05v-6.25"/><path stroke-width=".37" d="M238.86 224v-5.5m1.33 5.66l-.04-5.86"/><path stroke-width=".42" d="M235.35 223.7v-4.84m1.15 4.92v-5.08m1.2 5.24v-5.28"/><path stroke-width=".46" d="m234.12 223.66v-4.68"/><path stroke-width=".51" d="m232.97 223.42v-4.36"/><path stroke-width=".56" d="M231.74 223.3v-4.06"/><path stroke-width=".6" d="M229.22 222.95l-.04-3.22m1.33 3.38v-3.62"/><path stroke-width=".63" d="m227.93 222.68v-2.84"/><path stroke-width=".68" d="m226.74 222.45v-2.36"/><path stroke-width=".73" d="m225.45 222.13v-1.85"/><path stroke-width=".77" d="m224.12 221.98v-1.38"/><path stroke-width=".91" d="M222.72 221.66V221"/><g class="D"><path d="M220.12 221.66c7.75-2.18 18.3-3.52 30-3.54 11.72.02 22.3 1.36 30.06 3.54"/><path d="M216.72 217.16l1.22-1.6 3.37.43-2.7 1.96-1.9-.8" class="B"/><use xlink:href="#H" class="F"/><path d="M233.64 215.07l-2.36.27c-.6.07-1.17-.33-1.24-.9-.08-.57.35-1.1.96-1.15l2.37-.28 2.42-.28c.6-.07 1.15.33 1.22.9s-.36 1.1-.96 1.16l-2.4.28" class="I"/><use xlink:href="#I" class="F"/><path d="M250.15 214.16h-3.3c-.6 0-1.1-.46-1.1-1.03 0-.58.5-1.04 1.1-1.04h6.64c.6 0 1.1.46 1.1 1.04 0 .57-.5 1.03-1.1 1.03h-3.33" class="B"/><use xlink:href="#I" x="17.02" class="F"/><path d="M266.66 215.07l2.36.27c.6.07 1.17-.33 1.24-.9s-.36-1.1-.96-1.15l-2.37-.28-2.42-.28c-.6-.07-1.15.33-1.22.9-.08.57.36 1.1.96 1.16l2.4.28" class="I"/><use xlink:href="#H" x="50.04" class="F"/><path d="M283.57 217.16l-1.2-1.6-3.37.43 2.7 1.96 1.9-.8" class="B"/></g></g><g class="J"><path fill="#ccc" d="M250.5 344.33c-13.08 0-26.05-3.2-36.95-8.54-8.03-3.98-13.36-12-13.36-21.2v-33.3H300.6v33.3c0 9.2-5.32 17.2-13.36 21.2-10.9 5.34-23.66 8.54-36.75 8.54z"/><path fill="#ffd691" d="M252.9 329.55c2.1.63 3.15 2.2 3.15 4 0 2.38-2.3 4.18-5.3 4.18-3 0-5.42-1.8-5.42-4.18 0-1.8 1-3.8 3.08-3.94 0 0-.06-.2-.24-.5l-.64-.66s.8-.15 1.25.02a2.66 2.66 0 0 1 .77.47s.2-.43.52-.76c.3-.33.7-.53.7-.53s.46.38.6.64c.15.27.25.6.25.6s.42-.35.8-.5c.37-.15.84-.26.84-.26l-.22.7c-.1.23-.14.72-.14.72"/><path d="M250.32 340.32s-3.98-2.68-5.7-3.04c-2.2-.47-4.7-.1-5.76-.15.03.03 1.3.93 1.84 1.48s2.4 1.65 3.43 1.9c3.22.8 6.2-.2 6.2-.2m1.13.25s2.54-2.66 5.2-3.02c3.15-.44 5.22.26 6.44.58.03 0-1 .5-1.56.87-.55.37-1.97 1.57-4.14 1.6-2.18.03-4.58-.23-4.97-.17l-.98.15" class="I"/><path d="M250.7 337.28c-1-.93-1.62-2.25-1.62-3.72 0-1.46.62-2.78 1.63-3.7a5.08 5.08 0 0 1 1.61 3.71c0 1.47-.62 2.8-1.62 3.72" class="B"/><path d="M249.68 342.7s.6-1.52.67-2.83c.06-1.1-.15-2.17-.15-2.17h.8s.4 1.16.4 2.17c0 1.02-.18 2.37-.18 2.37s-.55.08-.73.17c-.2.1-.8.3-.8.3" class="I"/><g class="E"><path d="m250.32 314.57c0 13.16-11.16 23.82-25.05 23.82s-25.15-10.66-25.15-23.82v-33.35h50.2v33.35" class="B"/><path d="M200.03 314.12c.15 7.02 2.95 12.25 5.73 15.67v-49.47h-5.66l-.07 33.8zm11.05 20.1c1.57.83 3.72 2.22 6.03 2.77l-.15-56.96h-5.88v54.2zm11.2 4.02c2.3.23 4 .2 5.87 0v-58.2h-5.87v58.2zm11.04-1.25c2.3-.46 4.9-1.9 6.03-2.63v-54.33h-5.88l-.15 56.96zm11.48-7.76c2.45-2.18 4.75-7.12 5.6-12.76l.14-36.44h-5.87l.14 49.2z"/></g><path d="m300.65 281.22v33.35c0 13.16-11.28 23.82-25.17 23.82-13.9 0-25.16-10.66-25.16-23.82v-33.35h50.33" class="B"/></g><path id="E" stroke="#c8b100" d="M272.7 306.14c.05-.14.12-.27.2-.4l-4.26-4.74-1.67.72-3.06-3.4 1-1.46-5.34-6c-.07.02-.2.02-.27.04l.03 4.02 1.75.5v4.46l-1.75.48-.03 4.08c.84.26 1.48.88 1.74 1.67l3.2.01.5-1.67h4.72l.5 1.67zm-6.98-18.5v1.6h2.76v-1.6zm-7.3 20.37c.64 0 1.16-.5 1.16-1.1s-.52-1.1-1.16-1.1c-.65 0-1.17.5-1.17 1.1s.52 1.1 1.17 1.1zm16-9.73l-1.76-.48v-4.46l1.76-.5-.01-1.92c-.85-.25-1.5-.87-1.8-1.67h-2.68l-.5 1.67h-4.7l-.5-1.67h-3.1c-.08.22-.17.42-.3.6l5.38 5.96 1.67-.7 3.06 3.4-1 1.45 4.18 4.64.28-.12zm-7.25-1.4l-1.3 1.04 1.77 1.98 1.3-1.05zm8.004 36.186c-1.24-.065-2.255-.902-2.514-2.016-1.67-.23-3.25-.66-4.73-1.3l.84-1.43c1.3.55 2.66.9 4.08 1.1.3-.66.86-1.16 1.58-1.4l.01-5.62-1.76-.5v-4.46l1.76-.48v-7.64a.88.88 0 0 1-.2-.09l-3.98 4.42 1 1.44-3.06 3.4-1.67-.7-3.3 3.67c.57.87.55 2-.1 2.85a15.58 15.58 0 0 0 3.24 2.75l-.84 1.44c-1.42-.9-2.7-2-3.8-3.22-.87.26-1.86.1-2.6-.5-1.15-.93-1.3-2.56-.3-3.64l.14-.16c-.7-1.56-1.16-3.24-1.32-5h1.7a13.98 13.98 0 0 0 1.09 4.27c.5-.06 1-.01 1.46.16l3.32-3.68-1-1.45 3.06-3.4 1.67.72 4-4.43a2.15 2.15 0 0 1-.21-.46l-2.76.01-.5 1.67h-4.72l-.5-1.67-3.24-.01c-.27.76-.9 1.36-1.7 1.62l-.01 4.04h-1.7v-4c-1.1-.33-1.9-1.3-1.9-2.47 0-1.15.82-2.15 1.92-2.48l.01-4.05-1.76-.48v-4.46l1.76-.5v-4.05c-1.08-.35-1.84-1.32-1.84-2.45 0-1.43 1.22-2.58 2.73-2.58 1.22 0 2.25.74 2.6 1.78h3.1l.5-1.67h4.7l.5 1.67h2.68c.357-1.03 1.363-1.767 2.56-1.78l.07 8.37h-.85v2.6h.845l-.02 21.6h-.784v2.6h.78zm-5.914-18.306l-1.3-1.04-1.78 1.98 1.3 1.04zm-9.96-18.44h-1.7v2.6h1.7zm9.16 11.4v-1.6h-2.85v1.6zm-10.6 9.7l-1.76-.4-.25-4.45 1.75-.58v2.56c0 1 .1 1.92.26 2.86zm1.46-5.52l1.75.4.05 2.22c-.04-.74.2 2.24.2 2.24l-1.76.58c-.18-.9-.24-1.84-.24-2.8zm10.8 16.93l.4-1.7c-1.52-.48-2.93-1.18-4.17-2.1l-1.26 1.1c1.48 1.15 3.2 2.08 5.04 2.68zm-.85 1.44l-1.3 1.22c-1.47-.54-2.86-1.26-4.12-2.1l.38-1.77c1.5 1.13 3.2 2.03 5.04 2.66z" class="C E"/><use xlink:href="#E" transform="matrix(-1 0 0 1 550.43 0)" class="J"/><path d="M272.6 306.94c0-1.44 1.23-2.6 2.74-2.6s2.73 1.16 2.73 2.6c0 1.43-1.22 2.58-2.73 2.58s-2.74-1.15-2.74-2.58" class="I K"/><g class="E"><path d="m200.12 281.25h50.18v-55.72h-50.18v55.72z" class="B J"/><g stroke-width=".46"><path d="M217.34 238.4h-.92v-.92h-1.62v3.7h1.62v2.55h-3.47v7.4h1.85v14.8h-3.7v7.63h28.42v-7.63h-3.7v-14.8h1.85v-7.4h-3.47v-2.55h1.62v-3.7h-1.62v.92h-.93v-.92h-1.6v.92h-1.16v-.92h-1.62v3.7h1.62v2.55h-3.46v-8.1h1.84v-3.7h-1.84v.93h-.93v-.93h-1.62v.93h-.92v-.93h-1.85v3.7h1.85v8.1h-3.47v-2.55h1.62v-3.7h-1.62v.92h-.92v-.92h-1.85v.92zm-6.24 35.13h28.42m-28.42-1.85h28.42m-28.42-1.85h28.42M211.1 268h28.42m-28.42-2.08h28.42m-24.72-1.62h21.03m-21.03-1.85h21.03m-21.03-2.08h21.03m-21.03-1.84h21.03m-21.03-1.85h21.03m-21.03-1.85h21.03m-21.03-1.85h21.03m-22.88-1.85h24.73m-24.73-1.85h24.73m-24.73-1.85h24.73m-24.73-1.84h24.73m-21.26-1.85h17.8m-10.63-1.85h3.47m-3.47-1.85h3.47m-3.47-1.85h3.47m-3.47-1.85h3.47m-5.32-2.3h7.16m-12.47 7.86h3.7m-5.3-2.3h6.93m-6.93 33.97v-1.85m0-1.85V268m-1.85 1.85v1.85m3.47 0v-1.85m1.84 3.7v-1.85m0-1.85V268m0-2.08v-1.62m0-1.85v-2.08m-1.84 7.63v-2.08m-3.47 2.08v-2.08m7.16 0V268m1.62-2.08v-1.62m-5.3-1.85v1.85m3.7-1.85v1.85m3.47-1.85v1.85m-1.85-1.85v-2.08m1.85-1.84v1.84m0-5.54v1.85m-1.85-3.7v1.85m1.85-3.7v1.85m-3.47-1.85v1.85m-3.7-1.85v1.85m-1.62-3.7v1.85m3.46-1.85v1.85m3.47-1.85v1.85m1.85-3.7v1.85m-3.47-1.85v1.85m-3.7-1.85v1.85m-1.62-3.7v1.84m6.93-1.84v1.84m-3.47-5.54v1.85m15.95-1.85h-3.7m5.32-2.3h-6.94m6.94 33.97v-1.85m0-1.85V268m1.85 1.85v1.85m-3.47 0v-1.85m-1.85 3.7v-1.85m0-1.85V268m0-2.08v-1.62m0-1.85v-2.08m1.85 7.63v-2.08m3.47 2.08v-2.08m-7.17 0V268m-1.62-2.08v-1.62m5.32-1.85v1.85m-3.7-1.85v1.85m-3.46-1.85v1.85m1.84-1.85v-2.08m-1.84-1.84v1.84m0-5.54v1.85m1.84-3.7v1.85m-1.84-3.7v1.85m3.46-1.85v1.85m3.7-1.85v1.85m1.62-3.7v1.85m-3.47-1.85v1.85m-3.47-1.85v1.85m-1.84-3.7v1.85m3.46-1.85v1.85m3.7-1.85v1.85m1.62-3.7v1.84m-6.94-1.84v1.84m3.47-5.54v1.85m-7.16 18.7v-2.08m0-5.54v-1.85m0 5.55v-1.85m0-5.55v-1.85m0-1.85v-1.84m0-3.7v-1.85m0-1.85v-1.85m-8.78 4.85h3.7m3.47-5.54h3.47m3.46 5.54h3.7"/><path d="M230.05 273.54v-4.86c0-.92-.46-3.7-4.85-3.7-4.16 0-4.62 2.78-4.62 3.7v4.86h9.47z"/><path d="M222.2 268.9l-2.3-.23c0-.92.23-2.3.93-2.77l2.08 1.62c-.23.23-.7.92-.7 1.38zm3.92-2.3l1.16-2.08a5.55 5.55 0 0 0-2.08-.46 5.47 5.47 0 0 0-1.85.46l1.15 2.08h1.62zm2.3 2.3l2.3-.23c0-.92-.23-2.3-.92-2.77l-2.08 1.62c.23.23.7.92.7 1.38zm-6.7-8.07v-5.1c0-1.38-.92-2.54-2.54-2.54s-2.54 1.16-2.54 2.54v5.1h5.08zm7.17 0v-5.1c0-1.38.93-2.54 2.55-2.54 1.6 0 2.54 1.16 2.54 2.54v5.1h-5.1zm-8.8-12.48l.23-4.62h-4.4l.47 4.62h3.7zm6.95 0l.46-4.62h-4.4l.23 4.62h3.7zm3.45 0l-.46-4.62h4.62l-.46 4.62h-3.7z"/></g><path d="M228.43 273.54v-4.16c0-.7-.46-2.78-3.23-2.78-2.54 0-3 2.08-3 2.78v4.16h6.24zm-7.16-13.18v-4.4c0-1.15-.7-2.3-2.08-2.3s-2.08 1.16-2.08 2.3v4.4h4.16zm8.1 0v-4.4c0-1.15.7-2.3 2.08-2.3s2.08 1.16 2.08 2.3v4.4h-4.16z" fill="#0039f0" class="K"/></g><path fill="#ccc" d="m250.28 281.25h50.32v-55.72h-50.32v55.72z" class="J"/><path fill="#db4446" d="M275.93 239.26l.05-.62.1-.34s-1.6.13-2.46-.1-1.6-.6-2.4-1.25c-.8-.68-1.1-1.1-1.67-1.18-1.36-.22-2.4.4-2.4.4s1.02.37 1.78 1.3 1.6 1.4 1.95 1.53c.6.18 2.66.05 3.22.07l1.84.2z" class="D"/><g class="H"><g class="D"><path fill="#ed72aa" d="M283.46 237l.08 1.4c.06.67-.22 1.24-.1 1.6s.16.66.3.93c.14.26.2.94.2.94l-.74-.54-.6-.44.1 1.03c.04.3.22.9.5 1.24.3.33.87.9 1.05 1.33.18.45.14 1.44.14 1.44s-.46-.75-.87-.9c-.4-.14-1.26-.62-1.26-.62s.8.8.8 1.55c0 .75-.32 1.6-.32 1.6s-.36-.68-.83-1.12c-.47-.45-1.13-.9-1.13-.9s.52 1.17.52 1.95c0 .8-.15 2.47-.15 2.47s-.4-.64-.8-.96c-.4-.3-.87-.58-1.02-.78-.14-.2.48.64.54 1.16.07.5.32 2.35 1.92 4.7.94 1.37 2.4 3.77 5.5 2.98 3.1-.78 1.96-4.97 1.3-6.92-.65-1.95-.98-4.1-.94-4.87.04-.75.58-2.97.5-3.4-.07-.4-.24-2 .14-3.28.4-1.33.73-1.85.95-2.4.2-.55.4-.86.46-1.34s.07-1.37.07-1.37l.73 1.44c.14.38.14 1.5.14 1.5s.1-1.12.98-1.67 1.88-1.13 2.13-1.44.33-.5.33-.5-.08 1.92-.62 2.67c-.36.5-1.77 2.1-1.77 2.1s.73-.28 1.23-.3a5.1 5.1 0 0 1 .87 0s-.62.48-1.4 1.64c-.8 1.16-.47 1.26-1.05 2.22s-1.05 1-1.78 1.58c-1.08.87-.5 4.34-.36 4.86.15.5 2.03 4.76 2.07 5.8.03 1.03.2 3.33-1.6 4.8-1.16.95-3.07.96-3.5 1.23-.43.28-1.3 1.13-1.3 2.9 0 1.8.64 2.06 1.15 2.5.5.44 1.16.2 1.3.55.15.34.22.54.44.75.2.2.36.44.3.82-.08.38-.9 1.23-1.2 1.85-.3.6-.87 2.23-.87 2.47s-.07 1 .18 1.37c0 0 .9 1.06.3 1.26-.4.14-.78-.25-.97-.2-.54.14-.83.47-.98.45-.36-.07-.36-.25-.4-.76-.03-.5-.01-.72-.17-.72-.22 0-.33.18-.37.45s-.04.9-.3.9-.6-.45-.83-.55-.83-.2-.87-.48c-.03-.27.36-.85.76-.96.4-.1.76-.3.5-.5-.26-.2-.5-.2-.76 0-.25.2-.8.04-.76-.27.04-.3.1-.7.07-.86-.03-.17-.47-.5.1-.82.6-.3.84.27 1.42.17s.86-.3 1.08-.65.18-1.06-.22-1.5c-.4-.45-.8-.52-.94-.8-.14-.27-.36-.92-.36-.92s.1 1.2.04 1.37-.04.9-.04.9l-.72-.8c-.32-.34-.65-1.37-.65-1.37l-.03 1.34c0 .37.43.72.3.86-.15.13-.83-.72-1.02-.86-.18-.14-.76-.58-1-1.06s-.44-1.16-.5-1.4c-.07-.24-.2-1.3-.07-1.58l.47-1.13h-1.4c-.76 0-1.3-.23-1.6.28s-.15 1.54.2 2.88c.37 1.33.58 1.98.48 2.22-.1.24-.58.8-.76.9-.2.1-.7.07-.9-.03-.2-.1-.57-.27-1.26-.27s-1.12.03-1.37-.03c-.26-.07-.88-.38-1.17-.3s-.8.32-.65.72c.22.6-.2.75-.5.72-.3-.04-.53-.14-.9-.24-.36-.1-.9 0-.83-.42.07-.4.22-.44.4-.74.18-.32.25-.52.04-.54-.25-.02-.5-.05-.7.1-.2.16-.5.5-.76.38-.26-.14-.46-.43-.46-1.08 0-.64-.68-1.2-.05-1.17.62.03 1.4.48 1.55.13s.06-.5-.28-.78-.76-.43-.3-.77c.45-.35.56-.35.74-.54.17-.18.4-.8.73-.64.62.3.02.73.65 1.42.62.7 1 .94 2.06.83 1.04-.1 1.33-.24 1.33-.54 0-.3-.1-.82-.12-1.04-.02-.2.15-1 .15-1s-.48.3-.63.6c-.13.3-.42.8-.42.8s-.1-.6-.08-1.1c.02-.3.12-.8.1-.9-.03-.27-.23-.94-.23-.94s-.16.73-.28.94c-.1.2-.16 1.07-.16 1.07s-.67-.58-.48-1.55c.13-.75-.12-1.74.1-2.06.22-.33.75-1.64 2.06-1.7l2.77.03c.45-.03 2.06-.33 2.06-.33l-3.64-1.98c-.68-.45-1.73-1.63-2.07-2.16-.34-.54-.65-1.58-.65-1.58s-.53.02-1.02.3c-.48.27-.96.67-1.24 1s-.73 1.05-.73 1.05l.08-1.23c0-.3-.06-.86-.06-.86s-.33 1.28-1 1.76l-1.47 1.15.08-.88c0-.16.17-1 .17-1s-.48.72-1.2.86c-.74.13-1.8.1-1.9.56-.08.45.2 1.07.03 1.4s-.54.54-.54.54-.42-.35-.8-.38c-.36-.03-.7.16-.7.16s-.3-.4-.2-.67c.1-.26.67-.66.54-.83-.15-.16-.6.06-.88.2-.28.14-.88.27-.82-.2.05-.45.2-.72.05-1.04-.14-.32-.05-.53.18-.6.22-.08 1.12.02 1.2-.2.08-.2-.22-.48-.82-.6-.6-.14-.88-.5-.57-.78.32-.3.4-.38.54-.64.14-.27.2-.76.74-.5.53.24.42.83 1 1 .56.2 1.9-.08 2.17-.24s1.2-.83 1.5-1c.3-.15 1.6-1.12 1.6-1.12l-1.05-.8c-.28-.27-.78-.9-1.04-1.05-.25-.13-1.5-.6-1.92-.64-.42-.02-1.72-.48-1.72-.48s.6-.2.8-.35c.2-.16.64-.56.87-.53l.28.02-1.47-.13c-.25-.08-1-.54-1.27-.54s-.84.1-.84.1.76-.48 1.38-.6c.62-.1 1.1-.08 1.1-.08s-.96-.27-1.2-.58l-.62-1.02c-.17-.2-.28-.56-.6-.6s-.85.38-1.16.35-.54-.22-.57-.67c-.02-.46 0-.3-.1-.54-.12-.24-.57-.8-.15-.93.43-.14 1.33.08 1.42-.08.08-.16-.48-.65-.85-.83-.37-.2-.96-.5-.65-.78.3-.26.62-.37.8-.6s.37-.9.74-.7c.36.2.87 1.26 1.16 1.18.28-.08.3-.83.25-1.15-.06-.32 0-.88.28-.83s.5.43.96.46c.45.02 1.13-.1 1.07.2-.05.32-.3.7-.62 1.06-.3.36-.45 1.05-.25 1.5.2.46.7 1.2 1.16 1.48s1.3.5 1.84.85c.53.35 1.78 1.34 2.2 1.45a5.34 5.34 0 0 1 .85.32s.48-.2 1.13-.2 2.14.1 2.7-.14 1.3-.64 1.08-1.15c-.23-.5-1.47-.96-1.36-1.36s.57-.43 1.33-.46c.76-.02 1.8.14 2-.94.2-1.06.26-1.68-.8-1.92-1.08-.24-1.87-.27-2.07-1.04-.2-.78-.4-.97-.17-1.18.23-.2.62-.32 1.4-.37.8-.06 1.7-.06 1.96-.25.25-.18.3-.7.6-.9.3-.2 1.53-.4 1.53-.4s1.46.7 2.8 1.7c1.2.9 2.3 2.23 2.3 2.23"/><path d="M269 243.4s-.8.23-1.1.67c-.37.53-.34 1.07-.34 1.07s.68-.56 1.56-.33c.87.24.96.33 1.33.3s1.27-.35 1.27-.35-.74.86-.65 1.45c.08.58.2.85.17 1.15-.06.72-.6 1.6-.6 1.6s.3-.2 1.05-.35a4.6 4.6 0 0 0 1.75-.81c.4-.3.9-1.02.9-1.02s-.16 1 0 1.42c.17.44.23 1.67.23 1.67s.47-.42.85-.62c.2-.1.7-.38.9-.7.14-.22.32-1.06.32-1.06s.1.9.4 1.34c.28.42.7 1.74.7 1.74s.3-.86.6-1.2.68-.8.7-1.07c.03-.27-.08-.85-.08-.85l.4.85m-11.4.6s.48-.83.93-1.1c.46-.26 1.08-.74 1.25-.8.16-.05.9-.46.9-.46m1 5.17l1.4-.75c.68-.4 1.16-1.12 1.16-1.12"/></g><path d="M282.57 240.9l-.42-.65c-.1-.15-.23-.48-.23-.48" class="C"/><path d="M278.33 257.4s2.04 1.26 1.98 2.3c-.06 1.04-1.13 2.4-1.13 2.4" class="D"/></g><path d="M273.05 236.24l-.2-.62c-.03-.13-.12-.3-.12-.3s.88 0 .85.27c-.02.27-.28.27-.34.37-.05.1-.2.27-.2.27z" class="C"/><path d="M277.06 234.85l-.06-.43s.77 0 1.13.26c.57.4.93 1.02.9 1.05-.1.1-.54-.27-.85-.37 0 0-.23.05-.45.05-.23 0-.34-.1-.37-.2-.03-.12.03-.3.03-.3l-.34-.05z" class="L"/><path d="M273.08 240.14l.33-.53.34.5-.67.04m.82-.03l.4-.53.43.48-.83.05m-.37-3.3l.82.3-.74.38-.08-.67m1 .26l.73.18-.6.46-.14-.64" class="C"/><path d="M261.88 236.08s.48.34.85.4c.37.05.76.05.82.05.05 0 .17-.54.1-.9-.2-1.2-1.3-1.47-1.3-1.47s.33.73.17 1.07c-.23.48-.65.86-.65.86zm-2.28 1.04s-.43-.77-1.33-.67-1.5.8-1.5.8 1-.03 1.25.13c.37.24.48.86.48.86s.54-.32.7-.54c.16-.2.4-.6.4-.6zm-1.1 3.13s-.77.1-1.2.6-.36 1.4-.36 1.4.5-.54.95-.54c.46 0 1.16.16 1.16.16s-.22-.56-.22-.8-.34-.8-.34-.8zm2.56 10.12s-.42-.45-1.16-.32c-.74.14-1.22.97-1.22.97s.63-.17 1-.08c.36.08.62.45.62.45s.34-.3.45-.45.3-.57.3-.57zm-.86 2.97s-.62-.1-1.16.33c-.53.43-.56 1.25-.56 1.25s.5-.43.9-.37a3.68 3.68 0 0 1 .87.27l.1-.64c.1-.38-.17-.84-.17-.84zm1.46 2.74s-.05.8.33 1.28c.4.5 1.13.6 1.13.6s-.24-.53-.28-.8c-.06-.4.34-.75.34-.75s-.37-.38-.73-.38c-.37 0-.8.06-.8.06zm7.34 7.04s-.5-.64-1.2-.62c-.7.03-1.45.7-1.45.7s.88-.07 1.1.22c.23.3.45.67.45.67s.4-.2.57-.35c.17-.13.53-.6.53-.6zm-2.17 2.8s-.93-.14-1.4.35c-.45.48-.42 1.36-.42 1.36s.56-.6 1.07-.56 1.08.32 1.08.32l-.15-.78c-.05-.24-.2-.7-.2-.7zm2 2.97s-.46.64-.12 1.15 1.05.75 1.05.75-.26-.37-.14-.8c.1-.34.67-.8.67-.8l-1.46-.3zm12.4 1.2s-.8-.2-1.27.08c-.45.26-.82 1.4-.82 1.4s.74-.62 1.28-.54c.53.08.93.3.93.3s.08-.46.02-.78c-.03-.2-.14-.45-.14-.45zm.4 3s-.62.64-.4 1.18c.23.54.62 1.1.62 1.1s-.02-.8.23-1.02c.37-.32 1.05-.37 1.05-.37s-.54-.48-.7-.54c-.17-.05-.8-.35-.8-.35zm3.1.94s-.3.78.28 1.28c.6.52 1.1.57 1.1.57s-.46-.8-.32-1.23c.15-.45.54-.72.54-.72s-.74-.25-.85-.22c-.1.02-.76.32-.76.32z" fill="#db4446" class="D"/><g class="E"><path d="M282.88 232.7l-.3.02c-.01.03-.14.24-.26.35-.26.25-.65.28-.86.07-.1-.1-.16-.26-.14-.4a.49.49 0 0 1-.51-.01c-.26-.15-.32-.5-.14-.8.03-.06.06-.14.1-.18l-.02-.32-.35.08-.1.2c-.22.25-.54.3-.7.17-.08-.07-.14-.26-.13-.27a.37.37 0 0 1-.17.11c-.54.13-.75-1.05-.77-1.35l-.17.25s.16.7.08 1.3c-.08.6-.3 1.2-.3 1.2.74.2 1.86.8 2.97 1.65s1.98 1.78 2.34 2.42c0 0 .58-.32 1.18-.5s1.36-.2 1.36-.2l.22-.2c-.32.05-1.58.1-1.56-.43a.3.3 0 0 1 .08-.18.7.7 0 0 1-.3-.06c-.18-.13-.18-.43.02-.7l.18-.13.01-.34-.34.05c-.03.04-.1.1-.15.13-.27.23-.65.25-.86.03-.13-.12-.17-.3-.1-.46a.58.58 0 0 1-.45-.05c-.26-.15-.3-.52-.1-.8.1-.14.28-.3.3-.32l-.07-.3h-.01z" class="C"/><g fill="#000" class="L"><path d="M280.63 233.4c.05-.07.15-.06.23 0s.1.16.06.2c-.05.06-.15.06-.24-.01-.07-.05-.1-.15-.05-.2z"/><path d="M281.58 234.2l-.33-.25c-.06-.04-.07-.12-.04-.16.04-.04.12-.04.18 0l.33.26.33.25c.05.04.08.12.04.16s-.12.04-.18 0l-.33-.26m-1.74-1.2l-.26-.15c-.07-.04-.1-.12-.07-.17s.1-.06.17-.02l.26.16.26.15c.06.03.1.1.07.16-.03.05-.1.06-.17.02l-.26-.15"/><path d="M278.8 232.3c.05-.06.16-.06.24 0 .08.07.1.16.05.22-.05.05-.15.05-.23-.01s-.1-.15-.06-.2zm3.83 2.62c.05-.05.03-.14-.05-.2s-.2-.06-.24 0c-.04.05-.02.15.06.2s.18.06.23 0z"/><path d="M283.2 235.58l.22.2c.05.05.13.07.18.03.04-.04.04-.1-.01-.16l-.2-.2-.22-.2c-.05-.05-.14-.07-.18-.03-.05.03-.04.1.01.16l.2.2m.95.82c.05-.06.03-.15-.05-.2-.08-.07-.18-.07-.23-.01s-.03.15.05.22c.08.05.18.06.23 0z"/></g><g class="C"><use xlink:href="#J"/><use xlink:href="#J"/><path d="M279.8 230.84l-.02.54.92.12.15-.07-.02-.15-.53-.7-.5.27"/><path d="M281.7 231.92l-.5.27-.54-.7-.01-.15.14-.06.93.1-.03.54"/><path d="M280.5 231.25c.08-.13.26-.17.4-.1s.18.24.1.37-.26.17-.4.1c-.14-.08-.18-.24-.1-.37zm-2.14-.9c-.02.01-.13-.46-.26-.7-.08-.2-.4-.43-.4-.43.03-.05.42-.2.87.1.38.3-.03.87-.03.87s-.1.14-.2.18z"/><path d="M279.4 230.66l-.42.37-.68-.6.06-.08.03-.15.92-.07.1.53"/><path d="M278.24 230.3c.05-.15.18-.23.28-.2.1.04.15.18.1.33s-.18.23-.3.2c-.1-.04-.15-.18-.1-.33zm5.43 1.47l-.6-.06-.25.85.05.14h.15l.83-.4-.2-.53"/><path d="M282 232.03l-.1.54.9.23.15-.04.01-.14-.43-.8-.53.2"/><path d="M283.73 233.36l-.53.2-.42-.78.01-.15.15-.03.9.23-.1.53"/><path d="M282.65 232.54c.1-.12.28-.13.4-.04.13.1.15.26.05.38s-.28.13-.4.04a.26.26 0 0 1-.04-.38zm3 1.06l.1.55-.87.3-.16-.04v-.14l.36-.8.57.14"/><path d="M285.5 235.2l-.56.13-.3-.83.04-.15.15-.02.85.35-.17.52"/><path d="M283.97 233.66l-.18.52.85.34.16-.02.03-.14-.3-.83-.56.13"/><path d="M284.9 234.63c.12-.1.12-.28.02-.4-.1-.1-.3-.1-.4-.02-.1.1-.12.28-.01.4.1.1.3.12.4.02zm1.4 1.8c0 .01.5.03.8.1.2.04.52.27.52.27.06-.04.12-.42-.28-.8-.4-.28-.88.22-.88.22s-.12.12-.15.2z"/><path d="M285.75 235.54l-.3.46.76.5.1-.08.13-.04-.12-.88-.57.03"/><path d="M286.37 236.53c.14-.07.2-.22.15-.3s-.22-.1-.36-.02-.2.22-.14.3c.05.1.2.1.35.02z"/></g></g><g stroke-width=".61"><ellipse cx="250.43" cy="281.01" rx="16.26" ry="18.3" class="B"/><ellipse cx="250.44" cy="280.97" rx="11.44" ry="13.42" class="M"/></g><g id="F" stroke-width=".34" class="E"><path d="M245.03 271.74s-1.35 1.48-1.35 2.86c0 1.4.57 2.54.57 2.54-.2-.55-.76-.94-1.4-.94-.83 0-1.5.63-1.5 1.42 0 .22.14.58.24.77l.5 1c.16-.37.54-.57.98-.57.6 0 1.08.45 1.08 1a.69.69 0 0 1-.04.25l-1.22.01v1.03h1.1l-.8 1.6 1.07-.42.8.9.84-.9 1.07.42-.8-1.6h1.08v-1.03l-1.22-.01c-.02-.08-.02-.16-.02-.25 0-.56.47-1 1.06-1 .44 0 .82.2.98.57l.5-1c.1-.2.24-.55.24-.77 0-.8-.67-1.42-1.5-1.42-.66 0-1.2.4-1.4.94 0 0 .57-1.15.57-2.54 0-1.38-1.4-2.86-1.4-2.86z" class="G"/><path d="M242.87 281.1h4.36v-1.03h-4.36v1.03z"/></g><g stroke-width=".61"><use xlink:href="#F" x="10.63"/><use xlink:href="#F" x="5.31" y="9.14"/></g></g><defs ><path id="H" d="M224.03 215.28c0-.58.5-1.04 1.1-1.04s1.1.46 1.1 1.04c0 .57-.5 1.04-1.1 1.04s-1.1-.47-1.1-1.04"/><path id="I" d="M240.54 213.35c0-.58.5-1.04 1.1-1.04.6 0 1.1.46 1.1 1.04 0 .57-.5 1.04-1.1 1.04-.6 0-1.1-.47-1.1-1.04"/><path id="J" d="M281.4 230.36l-.6.01-.1.87.06.14.15-.01.76-.5-.27-.5"/></defs></svg>